<?xml version="1.0" encoding="UTF-8"?>
<svg width="176px" height="46px" viewBox="0 0 176 46" version="1.1" xmlns="http://www.w3.org/2000/svg" xmlns:xlink="http://www.w3.org/1999/xlink">
    <!-- Generator: Sketch 55.1 (78136) - https://sketchapp.com -->
    <title>编组 9@1x</title>
    <desc>Created with Sketch.</desc>
    <defs>
        <polygon id="path-1" points="-3.97903932e-13 4.64379946e-05 175.891103 4.64379946e-05 175.891103 45.5589235 -3.97903932e-13 45.5589235"></polygon>
    </defs>
    <g id="页面1" stroke="none" stroke-width="1" fill="none" fill-rule="evenodd">
        <g id="deals-apply" transform="translate(-1071.000000, -94.000000)">
            <g id="编组-9" transform="translate(1071.000000, 94.000000)">
                <mask id="mask-2" fill="white">
                    <use xlink:href="#path-1"></use>
                </mask>
                <g id="Clip-2"></g>
                <path d="M4.97258047,9.59232693e-14 C2.22623747,9.59232693e-14 -3.97903932e-13,2.22600528 -3.97903932e-13,4.97258047 L-3.97903932e-13,40.586343 C-3.97903932e-13,43.332686 2.22623747,45.5589235 4.97258047,45.5589235 L170.918987,45.5589235 C173.664865,45.5589235 175.891103,43.332686 175.891103,40.586343 L175.891103,4.97258047 C175.891103,2.22600528 173.664865,9.59232693e-14 170.918987,9.59232693e-14 L4.97258047,9.59232693e-14 Z" id="Fill-1" fill="#EA5456" mask="url(#mask-2)"></path>
                <path d="M39.4488908,15.631447 C39.1697984,15.4573045 38.8784,15.3010406 38.5756243,15.1635842 C37.6482575,14.7433203 36.635677,14.5301699 35.5652813,14.5301699 C34.4909383,14.5301699 33.4697668,14.7544654 32.5284686,15.1974839 C31.6052813,15.6328401 30.7868116,16.2309615 30.0962786,16.9742016 C29.4094607,17.7146554 28.8589383,18.5900116 28.4600359,19.5765868 C28.0588116,20.5696633 27.8554132,21.6379694 27.8554132,22.7517847 C27.8554132,23.885104 28.0588116,24.9626976 28.4600359,25.9548454 C28.8587061,26.9414206 29.4092285,27.8172412 30.0962786,28.5574628 C30.7886691,29.303257 31.6094607,29.8974311 32.5368274,30.3234997 C33.4748749,30.7546765 34.4934923,30.9729351 35.5652813,30.9729351 C36.636838,30.9729351 37.6496507,30.7597847 38.5756243,30.3392887 C38.8784,30.2020644 39.1697984,30.0460327 39.4488908,29.8718902 L39.4488908,30.4616528 L43.6733551,30.4616528 L43.6733551,15.0414522 L39.4488908,15.0414522 L39.4488908,15.631447 Z M38.3531863,19.850571 C38.6900939,20.2104654 38.9598987,20.6458216 39.1544739,21.1434047 C39.3497456,21.6430776 39.4488908,22.1840802 39.4488908,22.7517847 C39.4488908,23.3194892 39.3497456,23.8604918 39.1544739,24.3597003 C38.9598987,24.8579799 38.6903261,25.2928718 38.3536507,25.6523018 C38.0151177,26.0135894 37.6131968,26.3061488 37.1581045,26.5220855 C36.7164792,26.731753 36.2609224,26.8339166 35.7642681,26.8339166 C35.2671493,26.8339166 34.8113604,26.731753 34.3699673,26.5218533 C33.9148749,26.3059166 33.5131863,26.0135894 33.1748855,25.6518375 C32.8349594,25.2896211 32.5595821,24.8512464 32.3554871,24.3480908 C32.153714,23.852133 32.0513182,23.3150776 32.0513182,22.7517847 C32.0513182,22.188724 32.153714,21.6514364 32.3557193,21.1543177 C32.5593499,20.6525551 32.8351916,20.2139483 33.1748855,19.850571 C33.5129541,19.4899799 33.9151071,19.1971884 34.3701995,18.9812517 C34.8122892,18.771352 35.2685425,18.6691884 35.7642681,18.6691884 C36.2595293,18.6691884 36.7157826,18.771352 37.1581045,18.9810195 C37.6129646,19.1971884 38.0151177,19.4899799 38.3531863,19.850571 L38.3531863,19.850571 Z" id="Fill-3" fill="#FFFFFF" mask="url(#mask-2)"></path>
                <path d="M25.3930153,18.7362913 L16.8697858,18.7362913 L16.8697858,13.9164918 C16.8697858,13.2292095 17.4247198,12.6724179 18.1115377,12.6724179 L27.8073266,12.6724179 L27.8073266,8.27845488 L17.3915166,8.27845488 C14.6465668,8.27845488 12.417543,10.5046923 12.417543,13.2498744 L12.417543,30.461885 L16.8697858,30.461885 L16.8697858,23.1300222 L24.6966776,23.1300222 C24.6927303,23.0041752 24.6880865,22.8785604 24.6880865,22.7517847 C24.6880865,21.3565551 24.9267778,20.008228 25.3930153,18.7362913" id="Fill-5" fill="#FFFFFF" mask="url(#mask-2)"></path>
                <path d="M62.7368253,14.7002955 C63.3632739,14.0733826 64.1025668,13.5723166 64.9338069,13.2112612 C65.7545984,12.8543852 66.653638,12.6735092 67.6053847,12.6735092 C68.8069678,12.6735092 69.9307673,12.9646755 70.9459018,13.5386491 C71.970324,14.1179631 72.8034216,14.8951029 73.4224401,15.8484749 L73.9118966,16.6021636 L77.5823557,14.1711346 L77.1054375,13.4318417 C76.1023768,11.8757045 74.7542818,10.6153773 73.0989995,9.68545646 C71.4365193,8.75182058 69.5878227,8.27861741 67.6053847,8.27861741 C66.0492475,8.27861741 64.5632317,8.58069657 63.1879704,9.17603166 C61.8206037,9.76788391 60.6090364,10.5863536 59.5876327,11.6082216 C58.5653003,12.6300897 57.7470628,13.841657 57.1549784,15.2087916 C56.5596433,16.5835884 56.2577963,18.0698364 56.2577963,19.6257414 C56.2577963,21.1821108 56.5596433,22.668591 57.1549784,24.0431557 C57.747295,25.4109868 58.5657646,26.6223219 59.5874005,27.643029 C60.6099652,28.666058 61.8215325,29.4847599 63.1879704,30.0759156 C64.5634639,30.6712507 66.0494797,30.9728654 67.6053847,30.9728654 C68.5882449,30.9728654 69.5546195,30.8479472 70.4768781,30.6022902 C71.3947251,30.3577942 72.2747251,30.005562 73.092266,29.55581 C73.9114322,29.1055937 74.6699968,28.5543747 75.3463662,27.9188707 C76.0232,27.2840633 76.6162132,26.5656675 77.1100813,25.7841161 L77.5793372,25.0406438 L73.9072528,22.6565172 L73.4224401,23.4032401 C72.8034216,24.3566121 71.970324,25.133752 70.946134,25.713066 C69.9314639,26.2868074 68.8074322,26.5779736 67.6053847,26.5779736 C66.652477,26.5779736 65.7536697,26.3970976 64.9338069,26.040686 C64.1032633,25.680095 63.3642026,25.179029 62.7365931,24.5514195 C62.1099124,23.924971 61.6097752,23.178248 61.2494164,22.3316834 C60.8913794,21.4906913 60.7095747,20.5802744 60.7095747,19.6257414 C60.7095747,18.671905 60.8913794,17.7617203 61.2496485,16.9197995 C61.6097752,16.0732348 62.1101446,15.3262797 62.7368253,14.7002955" id="Fill-7" fill="#FFFFFF" mask="url(#mask-2)"></path>
                <path d="M93.2271768,16.950077 C92.4871873,16.2110164 91.6115989,15.617771 90.6233984,15.186362 C89.6238206,14.7507736 88.5483166,14.5301931 87.4266069,14.5301931 C86.2846966,14.5301931 85.1996728,14.7507736 84.2003272,15.1865942 C83.2118945,15.617771 82.3358417,16.2112485 81.596781,16.9503092 C80.8572559,17.6896021 80.2637784,18.5658871 79.8328338,19.5538554 C79.3972454,20.5527367 79.1762005,21.628705 79.1762005,22.7518079 C79.1762005,23.8944148 79.3972454,24.9796707 79.8326016,25.9766945 C80.263314,26.9658237 80.8570237,27.8423409 81.5965488,28.5811694 C82.3379314,29.322552 83.2165383,29.9123145 84.2075251,30.3337393 C85.2040844,30.7579504 86.2870185,30.9729583 87.4266069,30.9729583 C88.5459947,30.9729583 89.6189446,30.7579504 90.6164327,30.3337393 C91.6069551,29.9123145 92.485562,29.322552 93.227409,28.5811694 C93.9664697,27.8421087 94.5599472,26.9660559 94.991124,25.9771588 C95.4269446,24.9780454 95.6477573,23.8930216 95.6477573,22.7518079 C95.6477573,21.6300982 95.4269446,20.5541298 94.991124,19.5536232 C94.5594828,18.5656549 93.9662375,17.6898343 93.2271768,16.950077 M87.4266069,26.8053805 C86.867029,26.8053805 86.3336887,26.6999662 85.8400528,26.4916918 C85.3459525,26.2831852 84.9177942,25.9961984 84.5664908,25.6372327 C84.2121689,25.2757129 83.9254142,24.8387314 83.7145858,24.3372011 C83.5065435,23.8449583 83.4008971,23.3111536 83.4008971,22.7518079 C83.4008971,22.1843356 83.5035251,21.6656232 83.7148179,21.1652538 C83.9265752,20.661866 84.2156517,20.2176865 84.5743852,19.8440929 C84.9282427,19.4746786 85.3420053,19.1928 85.8400528,18.9829003 C86.3336887,18.7746259 86.867029,18.6692116 87.4266069,18.6692116 C87.9836306,18.6692116 88.510934,18.7739293 88.9934248,18.9805784 C89.4791662,19.189085 89.9094142,19.4823409 90.2707018,19.8508264 C90.6354723,20.2239557 90.9273351,20.6662776 91.1381636,21.1650216 C91.3492243,21.6663198 91.4518522,22.1852644 91.4518522,22.7518079 C91.4518522,23.310457 91.3462058,23.8437974 91.1383958,24.3376654 C90.928496,24.834552 90.6391873,25.269676 90.2778997,25.6309636 C89.9145224,25.9934121 89.4826491,26.284114 88.9941214,26.4937815 C88.510934,26.7004306 87.9836306,26.8053805 87.4266069,26.8053805" id="Fill-9" fill="#FFFFFF" mask="url(#mask-2)"></path>
                <path d="M107.186926,24.2453699 C107.173226,24.3784148 107.13654,24.6150164 107.040646,25.0169372 C106.974704,25.294172 106.835158,25.5755863 106.626419,25.8544464 C106.424878,26.1230902 106.106313,26.3715335 105.679548,26.592114 C105.259749,26.8089794 104.661395,26.9190375 103.900509,26.9190375 C103.318641,26.9190375 102.872836,26.8226786 102.575401,26.6327472 C102.24987,26.4251694 102.016055,26.1915863 101.860255,25.9180665 C101.686577,25.6138976 101.577448,25.3060137 101.527527,24.9756074 C101.467622,24.5866892 101.43767,24.2493172 101.43767,23.9734755 L101.43767,15.0413594 L97.2417646,15.0413594 L97.2417646,24.48499 C97.2417646,24.8439557 97.2851842,25.2347314 97.3710945,25.647333 C97.4567726,26.1342354 97.6148939,26.6777921 97.841047,27.2633752 C98.0885615,27.9051483 98.4677277,28.5069847 98.9678649,29.0507736 C99.4721815,29.6005995 100.127654,30.0624253 100.91501,30.4234807 C101.711189,30.7882512 102.705891,30.9728422 103.871949,30.9728422 C104.668129,30.9728422 105.382577,30.8658026 105.995791,30.6540454 C106.451812,30.4963884 106.844678,30.3306047 107.186926,30.1518185 L107.186926,30.4615599 L111.41139,30.4615599 L111.41139,15.0413594 L107.186926,15.0413594 L107.186926,24.2453699 Z" id="Fill-11" fill="#FFFFFF" mask="url(#mask-2)"></path>
                <path d="M127.403776,16.9457815 C126.711154,16.1999873 125.884093,15.6053488 124.945349,15.1778871 C123.99871,14.7481034 122.985665,14.530077 121.934541,14.530077 C120.86461,14.530077 119.851797,14.7432274 118.924198,15.1634913 C118.612832,15.3051272 118.311681,15.466267 118.023069,15.6469108 L118.023069,15.0413594 L113.826468,15.0413594 L113.826468,37.2812116 L118.023069,37.2812116 L118.023069,29.8562406 C118.311681,30.0368844 118.612599,30.1980243 118.923966,30.3391958 C119.850404,30.7596918 120.863217,30.9728422 121.934541,30.9728422 C122.98613,30.9728422 123.999175,30.755048 124.945581,30.3252644 C125.883628,29.8987314 126.710921,29.3038607 127.403776,28.5571377 C128.090594,27.8171483 128.641117,26.9415599 129.040251,25.9549847 C129.441011,24.9628369 129.644642,23.8847789 129.644642,22.7516918 C129.644642,21.6188369 129.441011,20.5407789 129.040019,19.5477024 C128.640884,18.5618237 128.090594,17.6864675 127.403776,16.9457815 M125.420177,22.7516918 C125.420177,23.3193963 125.321032,23.8603989 125.126225,24.3596074 C124.931185,24.8595124 124.659291,25.3016021 124.3189,25.6731061 C123.980367,26.0422881 123.595164,26.3230058 123.141465,26.5308158 C122.696357,26.7346786 122.236621,26.8338237 121.736019,26.8338237 C121.234953,26.8338237 120.775449,26.7346786 120.330805,26.5308158 C119.876409,26.3230058 119.491206,26.0425203 119.153138,25.6731061 C118.809032,25.2981193 118.531101,24.8527789 118.326774,24.3482301 C118.125233,23.8529689 118.023069,23.3159135 118.023069,22.7516918 C118.023069,22.1877024 118.125233,21.6504148 118.327006,21.1542248 C118.531333,20.6503726 118.809264,20.2045678 119.15337,19.829581 C119.486563,19.4655071 119.882679,19.176895 120.330805,18.9721034 C120.775681,18.7682406 121.23565,18.6690955 121.736019,18.6690955 C122.236156,18.6690955 122.695892,18.7684728 123.141001,18.9718712 C123.588431,19.176895 123.984779,19.4657393 124.318668,19.829581 C124.658826,20.2013172 124.930721,20.6434069 125.12576,21.1428475 C125.321032,21.6429847 125.420177,22.1844517 125.420177,22.7516918" id="Fill-13" fill="#FFFFFF" mask="url(#mask-2)"></path>
                <path d="M145.28944,16.950077 C144.549682,16.2110164 143.674094,15.617771 142.685893,15.186362 C141.686316,14.7507736 140.610812,14.5301931 139.48887,14.5301931 C138.347192,14.5301931 137.262168,14.7507736 136.262822,15.1865942 C135.274389,15.617771 134.398337,16.2112485 133.659044,16.9503092 C132.919751,17.6896021 132.326273,18.5658871 131.895329,19.5538554 C131.459508,20.5527367 131.238463,21.628705 131.238463,22.7518079 C131.238463,23.8944148 131.459508,24.9796707 131.895097,25.9766945 C132.325577,26.9658237 132.919519,27.8423409 133.658812,28.5811694 C134.400194,29.322552 135.279033,29.9123145 136.27002,30.3337393 C137.266579,30.7579504 138.349746,30.9729583 139.48887,30.9729583 C140.60849,30.9729583 141.681672,30.7579504 142.678928,30.3337393 C143.66945,29.9123145 144.548057,29.322552 145.289672,28.5811694 C146.029197,27.8421087 146.622442,26.9660559 147.053619,25.9771588 C147.48944,24.9780454 147.710252,23.8930216 147.710252,22.7518079 C147.710252,21.6300982 147.48944,20.5541298 147.053619,19.5536232 C146.621978,18.5656549 146.028732,17.6898343 145.28944,16.950077 M139.48887,26.8053805 C138.929524,26.8053805 138.396184,26.6999662 137.902548,26.4916918 C137.408447,26.2831852 136.980289,25.9961984 136.628986,25.6372327 C136.274664,25.2757129 135.987909,24.8387314 135.777081,24.3372011 C135.568806,23.8449583 135.463392,23.3111536 135.463392,22.7518079 C135.463392,22.1843356 135.566252,21.6656232 135.777313,21.1652538 C135.989302,20.661866 136.277915,20.2176865 136.63688,19.8440929 C136.990738,19.4746786 137.4045,19.1928 137.902548,18.9829003 C138.396184,18.7746259 138.929524,18.6692116 139.48887,18.6692116 C140.046126,18.6692116 140.573429,18.7739293 141.05592,18.9805784 C141.541893,19.189085 141.971677,19.4823409 142.333197,19.8508264 C142.697967,20.2239557 142.98983,20.6662776 143.200426,21.1650216 C143.411487,21.6663198 143.514115,22.1852644 143.514115,22.7518079 C143.514115,23.310457 143.408701,23.8437974 143.200659,24.3376654 C142.991223,24.834552 142.70145,25.269676 142.340163,25.6309636 C141.977017,25.9934121 141.544912,26.284114 141.056616,26.4937815 C140.573429,26.7004306 140.046126,26.8053805 139.48887,26.8053805" id="Fill-15" fill="#FFFFFF" mask="url(#mask-2)"></path>
                <path d="M163.439707,20.4739778 C163.419042,20.2986744 163.38816,20.0994554 163.347063,19.871677 C163.262081,19.3808274 163.103031,18.8319303 162.874324,18.2393815 C162.626809,17.5980728 162.247643,16.996933 161.747506,16.4519831 C161.241332,15.9012285 160.580519,15.4387061 159.781786,15.0778828 C158.97748,14.7142734 157.979295,14.5301467 156.815559,14.5301467 C156.036794,14.5301467 155.331865,14.6371863 154.71958,14.8487113 C154.251949,15.0107799 153.850261,15.1812074 153.500118,15.366495 L153.500118,15.041429 L149.304213,15.041429 L149.304213,30.4616296 L153.500118,30.4616296 L153.500118,21.2580834 C153.513353,21.1266639 153.550039,20.8944739 153.644773,20.5053235 C153.710947,20.2366797 153.854672,19.9543367 154.073627,19.6654923 C154.283063,19.3875609 154.600931,19.1393499 155.016783,18.9278248 C155.428224,18.7186216 156.023791,18.6125108 156.786767,18.6125108 C157.371422,18.6125108 157.824424,18.7102628 158.133469,18.903677 C158.463875,19.1103261 158.700477,19.3422839 158.855116,19.6123208 C159.028794,19.9174185 159.138155,20.2259989 159.188076,20.5547799 C159.247517,20.9462522 159.277701,21.2741045 159.277701,21.5297456 L159.277701,30.4616296 L163.473839,30.4616296 L163.473839,21.0182311 C163.473839,20.8545372 163.462926,20.6773763 163.439707,20.4739778" id="Fill-17" fill="#FFFFFF" mask="url(#mask-2)"></path>
                <path d="M51.4298005,26.8241646 C51.4448929,26.8264865 51.4576633,26.8264865 51.4732201,26.8264865 C51.4883124,26.8264865 51.5010828,26.8264865 51.5161752,26.8241646 L51.4298005,26.8241646 Z" id="Fill-19" fill="#FFFFFF" mask="url(#mask-2)"></path>
                <path d="M50.2289604,25.2848844 C50.2289604,25.9540559 50.7632296,26.5036496 51.429847,26.5238501 C51.4449393,26.5264042 51.4577098,26.5264042 51.4730343,26.5264042 C51.4883588,26.5264042 51.5011293,26.5264042 51.5162216,26.5238501 L53.0707335,26.5238501 L53.0707335,30.6733172 L51.0608971,30.6733172 C48.315715,30.6733172 46.0897098,28.4470797 46.0897098,25.6995757 L46.0897098,8.2785942 L50.2289604,8.2785942 L50.2289604,14.7420665 L53.0707335,14.7420665 L53.0707335,18.8813172 L50.2289604,18.8813172 L50.2289604,25.2848844 Z" id="Fill-21" fill="#FFFFFF" mask="url(#mask-2)"></path>
            </g>
        </g>
    </g>
</svg>