<?xml version="1.0" encoding="UTF-8"?>
<svg width="182px" height="182px" viewBox="0 0 182 182" version="1.1" xmlns="http://www.w3.org/2000/svg" xmlns:xlink="http://www.w3.org/1999/xlink">
    <!-- Generator: Sketch 55.1 (78136) - https://sketchapp.com -->
    <title>logo-2</title>
    <desc>Created with Sketch.</desc>
    <g id="页面1" stroke="none" stroke-width="1" fill="none" fill-rule="evenodd">
        <g id="apply-coupon-2" transform="translate(-1101.000000, -146.000000)">
            <g id="logo-2" transform="translate(1101.000000, 146.000000)">
                <circle id="椭圆形" fill="#EA5456" cx="91" cy="91" r="91"></circle>
                <g id="编组-2" transform="translate(28.661417, 53.023622)" fill="#FFFFFF">
                    <path d="M73.5318335,22.7444396 C75.5952303,20.6850574 78.0290097,19.0394292 80.7668107,17.8540366 C83.4692496,16.6828403 86.4309334,16.0888846 89.5632275,16.0888846 C93.5210181,16.0888846 97.2214008,17.0453043 100.564948,18.9290643 C103.93697,20.832058 106.681659,23.3841898 108.719108,26.5144782 L110.331065,28.9883013 L122.417528,21.0058484 L120.847592,18.5791937 C117.54331,13.4689768 113.104917,9.33052075 107.655033,6.27716726 C102.179431,3.21190718 96.0930309,1.65741023 89.5632275,1.65741023 C84.440557,1.65741023 79.546821,2.64886285 75.0188753,4.60383338 C70.5157289,6.54850014 66.5262503,9.23595495 63.1618068,12.5910947 C59.7964449,15.9469214 57.1004354,19.9250964 55.1511616,24.4136519 C53.1906362,28.9280814 52.1970553,33.8084096 52.1970553,38.9167948 C52.1970553,44.0276987 53.1906362,48.9082558 55.1511616,53.4226853 C57.1013539,57.9137596 59.7980522,61.8919346 63.1608883,65.2434108 C66.5287762,68.6026721 70.5173363,71.2903559 75.0188753,73.231588 C79.5477395,75.1863296 84.4412458,76.1770953 89.5632275,76.1770953 C92.8004596,76.1770953 95.9823524,75.7679207 99.0193527,74.9601044 C102.041887,74.1573254 104.939735,73.0000964 107.631612,71.5241372 C110.329228,70.0454302 112.826614,68.2360865 115.05511,66.1489986 C117.283606,64.0639714 119.237242,61.7064666 120.862517,59.1383066 L122.407654,56.6974556 L110.315681,48.8681856 L108.719108,51.3209432 C106.681659,54.4519185 103.93697,57.0040503 100.565867,58.9063571 C97.2241562,60.7901171 93.5219366,61.744934 89.5632275,61.744934 C86.4268002,61.744934 83.4669533,61.1516652 80.7668107,59.9813848 C78.0315356,58.797595 75.5977561,57.1519668 73.530915,55.0916687 C71.4675183,53.0341183 69.820429,50.5813607 68.634194,47.8030037 C67.4546181,45.0404458 66.8564489,42.0512047 66.8564489,38.9167948 C66.8564489,35.7839877 67.4546181,32.7958915 68.6351125,30.0324177 C69.8213475,27.251313 71.4684368,24.8003872 73.5318335,22.7444396" id="Fill-3"></path>
                    <path d="M43.1115669,35.3539504 L15.646257,35.3539504 L15.646257,19.1628795 C15.646257,16.8555582 17.5198661,14.9829971 19.8403241,14.9829971 L49.2082165,14.9829971 C51.3661412,11.1868094 53.990937,7.72793565 57.065173,4.67173046 C58.6789643,3.06667812 60.4022889,1.58319936 62.2285513,0.224339366 L17.4082127,0.224339366 C8.1350961,0.224339366 0.606504102,7.70240285 0.606504102,16.9237237 L0.606504102,74.7440244 L15.646257,74.7440244 L15.646257,50.1135452 L44.4342115,50.1135452 L44.4342115,49.9254458 C43.4922247,46.1908647 43.0093358,42.3176101 43.0093358,38.3417558 C43.0093358,37.338481 43.050558,36.3438732 43.1115669,35.3539504" id="Fill-5"></path>
                </g>
            </g>
        </g>
    </g>
</svg>