<?xml version="1.0" encoding="UTF-8"?>
<svg width="14px" height="14px" viewBox="0 0 14 14" version="1.1" xmlns="http://www.w3.org/2000/svg" xmlns:xlink="http://www.w3.org/1999/xlink">
    <!-- Generator: Sketch 55.1 (78136) - https://sketchapp.com -->
    <title>search_red@2x</title>
    <desc>Created with Sketch.</desc>
    <g id="页面1" stroke="none" stroke-width="1" fill="none" fill-rule="evenodd" opacity="0.803036644">
        <g id="recent-&amp;-trending" transform="translate(-1013.000000, -174.000000)" fill="#8b8789" fill-rule="nonzero">
            <g id="search_red" transform="translate(1013.000000, 174.000000)">
                <path d="M13.78019,12.7194677 L10.7398794,9.67915948 C11.5294317,8.66317888 11.9999558,7.38656896 11.9999558,5.9999806 C11.9999558,2.68655172 9.31370364,0 5.99997036,0 C2.68623708,0 0,2.68653665 0,5.99996552 C0,9.31371121 2.68625218,11.9999461 6,11.9999461 C7.38654477,11.9999461 8.66315571,11.5294073 9.67915222,10.7398556 L12.7194629,13.7801789 C13.012573,14.0732737 13.4873816,14.0732737 13.78019,13.7801789 C14.07327,13.4873707 14.07327,13.0125474 13.78019,12.7194677 L13.78019,12.7194677 Z M1.50020379,5.99996552 C1.50020379,3.51481466 3.51481749,1.49994613 5.99998544,1.49994613 C8.48512322,1.49994613 10.5000386,3.51481466 10.5000386,5.99996552 C10.5000386,8.48514655 8.48512322,10.5000302 5.99998544,10.5000302 C3.51481749,10.5000302 1.50020379,8.48516164 1.50020379,5.99996552 L1.50020379,5.99996552 Z" id="形状"></path>
            </g>
        </g>
    </g>
</svg>
